<svg xmlns="http://www.w3.org/2000/svg" viewBox="0 0 1200 800" role="img" aria-label="Cartao de visita">
  <defs>
    <linearGradient id="desk" x1="0" x2="1">
      <stop offset="0" stop-color="#0f172a"/>
      <stop offset="1" stop-color="#1f2b49"/>
    </linearGradient>
    <linearGradient id="card" x1="0" x2="1" y1="0" y2="1">
      <stop offset="0" stop-color="#ffffff"/>
      <stop offset="1" stop-color="#edf4ff"/>
    </linearGradient>
  </defs>
  <rect width="1200" height="800" fill="url(#desk)"/>
  <rect x="0" y="0" width="1200" height="280" fill="#f3f7ff" opacity=".07"/>
  <ellipse cx="868" cy="612" rx="210" ry="58" fill="#000" opacity=".22"/>
  <g transform="translate(298 208) rotate(-9 300 210)">
    <rect x="0" y="0" width="604" height="360" rx="24" fill="#ffffff" opacity=".18"/>
    <rect x="24" y="24" width="556" height="312" rx="18" fill="url(#card)"/>
    <rect x="58" y="52" width="180" height="68" rx="18" fill="#07133f" opacity=".12"/>
    <rect x="62" y="138" width="292" height="22" rx="11" fill="#2f6bff" opacity=".15"/>
    <rect x="62" y="176" width="242" height="16" rx="8" fill="#0faa62" opacity=".16"/>
    <rect x="62" y="214" width="332" height="16" rx="8" fill="#07133f" opacity=".08"/>
    <rect x="62" y="254" width="152" height="18" rx="9" fill="#2f6bff" opacity=".20"/>
    <circle cx="462" cy="118" r="74" fill="#0faa62" opacity=".10"/>
    <circle cx="486" cy="142" r="38" fill="#2f6bff" opacity=".10"/>
  </g>
  <path d="M138 600c120-56 220-76 340-80 130-5 300 16 458 62" stroke="#f4f8ff" stroke-opacity=".08" stroke-width="20" fill="none"/>
</svg>
