<svg xmlns="http://www.w3.org/2000/svg" viewBox="0 0 1200 800" role="img" aria-label="Produtos em destaque">
  <defs>
    <linearGradient id="bg" x1="0" x2="1">
      <stop offset="0" stop-color="#f8fbff"/>
      <stop offset="1" stop-color="#e7eefb"/>
    </linearGradient>
    <linearGradient id="shelf" x1="0" x2="1">
      <stop offset="0" stop-color="#07133f"/>
      <stop offset="1" stop-color="#132250"/>
    </linearGradient>
  </defs>
  <rect width="1200" height="800" fill="url(#bg)"/>
  <rect y="548" width="1200" height="252" fill="#d7e2f3"/>
  <g transform="translate(130 116)">
    <rect x="0" y="0" width="940" height="72" rx="20" fill="#edf4ff"/>
    <rect x="52" y="24" width="292" height="18" rx="9" fill="#2f6bff" opacity=".18"/>
    <rect x="52" y="48" width="164" height="10" rx="5" fill="#0faa62" opacity=".18"/>
    <g transform="translate(0 118)">
      <rect x="0" y="0" width="940" height="274" rx="28" fill="url(#shelf)"/>
      <rect x="58" y="42" width="150" height="182" rx="18" fill="#0b1b3d"/>
      <rect x="82" y="64" width="102" height="94" rx="14" fill="#edf4ff"/>
      <rect x="102" y="86" width="62" height="12" rx="6" fill="#2f6bff" opacity=".20"/>
      <rect x="82" y="172" width="102" height="18" rx="9" fill="#0faa62" opacity=".18"/>
      <rect x="246" y="28" width="150" height="196" rx="18" fill="#12224e"/>
      <rect x="272" y="52" width="98" height="110" rx="16" fill="#f6f9ff"/>
      <rect x="464" y="40" width="132" height="172" rx="18" fill="#172750"/>
      <rect x="636" y="48" width="150" height="188" rx="18" fill="#0b1b3d"/>
      <rect x="664" y="72" width="94" height="96" rx="14" fill="#edf4ff"/>
      <rect x="848" y="66" width="54" height="168" rx="18" fill="#2f6bff" opacity=".28"/>
    </g>
  </g>
  <g opacity=".75">
    <circle cx="986" cy="612" r="104" fill="#0faa62" opacity=".16"/>
    <circle cx="980" cy="612" r="58" fill="#ffffff" opacity=".08"/>
  </g>
</svg>
