<svg xmlns="http://www.w3.org/2000/svg" viewBox="0 0 1200 800" role="img" aria-label="Post para redes sociais">
  <defs>
    <linearGradient id="bg" x1="0" x2="1">
      <stop offset="0" stop-color="#081229"/>
      <stop offset="1" stop-color="#2f6bff"/>
    </linearGradient>
    <linearGradient id="phone" x1="0" x2="0" y1="0" y2="1">
      <stop offset="0" stop-color="#111827"/>
      <stop offset="1" stop-color="#0b1020"/>
    </linearGradient>
  </defs>
  <rect width="1200" height="800" fill="url(#bg)"/>
  <circle cx="930" cy="170" r="220" fill="#fff" opacity=".08"/>
  <circle cx="220" cy="640" r="150" fill="#0faa62" opacity=".10"/>
  <g transform="translate(308 88)">
    <rect x="0" y="0" width="584" height="624" rx="34" fill="#ffffff" opacity=".14"/>
    <rect x="34" y="36" width="516" height="552" rx="28" fill="url(#phone)"/>
    <rect x="84" y="82" width="416" height="480" rx="22" fill="#0f172a"/>
    <rect x="104" y="102" width="376" height="176" rx="18" fill="#edf4ff" opacity=".92"/>
    <rect x="128" y="130" width="178" height="18" rx="9" fill="#2f6bff" opacity=".18"/>
    <rect x="128" y="162" width="242" height="18" rx="9" fill="#0faa62" opacity=".18"/>
    <rect x="128" y="208" width="148" height="14" rx="7" fill="#07133f" opacity=".16"/>
    <rect x="128" y="238" width="276" height="12" rx="6" fill="#07133f" opacity=".10"/>
    <rect x="104" y="302" width="376" height="252" rx="18" fill="#111827"/>
    <rect x="124" y="330" width="154" height="154" rx="18" fill="#2f6bff" opacity=".24"/>
    <rect x="294" y="330" width="162" height="154" rx="18" fill="#0faa62" opacity=".18"/>
    <rect x="124" y="502" width="332" height="30" rx="15" fill="#edf4ff" opacity=".12"/>
  </g>
</svg>
