<svg xmlns="http://www.w3.org/2000/svg" viewBox="0 0 1200 800" role="img" aria-label="Camiseta">
  <defs>
    <linearGradient id="bg" x1="0" x2="1">
      <stop offset="0" stop-color="#eef4ff"/>
      <stop offset="1" stop-color="#dbe8fb"/>
    </linearGradient>
    <linearGradient id="shirt" x1="0" x2="0" y1="0" y2="1">
      <stop offset="0" stop-color="#ffffff"/>
      <stop offset="1" stop-color="#d7e2f3"/>
    </linearGradient>
  </defs>
  <rect width="1200" height="800" fill="url(#bg)"/>
  <circle cx="930" cy="220" r="220" fill="#2f6bff" opacity=".08"/>
  <circle cx="260" cy="180" r="140" fill="#0faa62" opacity=".08"/>
  <g transform="translate(370 100)">
    <path d="M120 78 194 34h88l74 44 74-44 102 106-70 94-58-28v296c0 30-24 54-54 54H226c-30 0-54-24-54-54V256l-58 28-70-94 102-106z" fill="#0e1630" opacity=".16"/>
    <path d="M138 98 194 60h88l56 38 62-38 88 90-46 60-56-26v292c0 20-16 36-36 36H226c-20 0-36-16-36-36V184l-56 26-46-60 50-52z" fill="url(#shirt)"/>
    <path d="M280 130h100l10 22-70 36h-60l-70-36 10-22z" fill="#eaf2ff"/>
    <rect x="190" y="268" width="220" height="152" rx="22" fill="#edf4ff"/>
    <rect x="214" y="292" width="172" height="20" rx="10" fill="#2f6bff" opacity=".18"/>
    <rect x="214" y="324" width="128" height="14" rx="7" fill="#0faa62" opacity=".18"/>
    <rect x="214" y="350" width="100" height="14" rx="7" fill="#07133f" opacity=".12"/>
  </g>
</svg>
